<svg width="45" height="48" viewBox="0 0 45 48" fill="none" xmlns="http://www.w3.org/2000/svg">
<g clip-path="url(#clip0)">
<path d="M0 10.9211L6.804 4.11707L10.2073 7.51907L6.804 10.9211L10.2073 14.3268L6.804 17.72L0 10.9211Z" fill="#1D1D1B"/>
<path d="M25.8311 5.13253V22.2443H18.9881V5.13253H13.8556V0H30.9636V5.13253H25.8311Z" fill="#F4A7B7"/>
<path d="M24.1207 30.8932H20.6985V34.3091H30.9636V47.995H13.8556V41.157H20.6985V42.8675H24.1194V39.4466H13.8556V25.7632H30.9636V32.6062H24.1207V30.8932Z" fill="#65C7EE"/>
<path d="M37.9649 17.7993L34.5604 14.396L37.9624 10.994L34.5604 7.592L37.9624 4.19L44.7664 10.994L37.9649 17.7993Z" fill="#1D1D1B"/>
</g>
<defs>
<clipPath id="clip0">
<rect width="44.7689" height="48" fill="white"/>
</clipPath>
</defs>
</svg>
